<svg xmlns="http://www.w3.org/2000/svg" viewBox='0 0 32 31'>
<path d="M30.740,9.659 C29.156,5.902 26.193,2.890 22.497,1.281 C23.497,0.481 24.755,-0.000 26.126,-0.000 C29.370,-0.000 32.000,2.673 32.000,5.970 C32.000,7.364 31.527,8.642 30.740,9.659 ZM30.500,16.262 C30.500,20.177 28.988,23.726 26.537,26.365 L28.566,28.426 C28.834,28.699 29.000,29.076 29.000,29.492 C29.000,30.325 28.336,31.000 27.517,31.000 C27.107,31.000 26.736,30.831 26.468,30.558 L24.290,28.344 C21.939,30.013 19.085,31.000 16.000,31.000 C12.921,31.000 10.072,30.018 7.724,28.354 L5.561,30.553 C5.289,30.829 4.914,31.000 4.500,31.000 C3.672,31.000 3.000,30.317 3.000,29.475 C3.000,29.054 3.168,28.673 3.439,28.397 L5.451,26.353 C3.008,23.714 1.500,20.171 1.500,16.262 C1.500,8.123 7.992,1.524 16.000,1.524 C24.008,1.524 30.500,8.123 30.500,16.262 ZM16.000,4.573 C9.649,4.573 4.500,9.806 4.500,16.262 C4.500,22.718 9.649,27.951 16.000,27.951 C22.351,27.951 27.500,22.718 27.500,16.262 C27.500,9.806 22.351,4.573 16.000,4.573 ZM22.000,17.787 L16.000,17.787 C15.172,17.787 14.500,17.104 14.500,16.262 L14.500,8.131 C14.500,7.289 15.172,6.606 16.000,6.606 C16.828,6.606 17.500,7.289 17.500,8.131 L17.500,14.737 L22.000,14.737 C22.828,14.737 23.500,15.420 23.500,16.262 C23.500,17.104 22.828,17.787 22.000,17.787 ZM1.287,9.864 C0.483,8.827 -0.000,7.521 -0.000,6.098 C-0.000,2.730 2.686,-0.000 6.000,-0.000 C7.400,-0.000 8.685,0.491 9.706,1.308 C5.931,2.952 2.904,6.028 1.287,9.864 Z"/>
</svg>